<svg xmlns="http://www.w3.org/2000/svg" width="163.844" height="26.521" viewBox="0 0 163.844 26.521"><defs><style>.a{fill:none;stroke:#000;stroke-linecap:round;stroke-linejoin:round;stroke-miterlimit:2.613;stroke-width:1.328px;}.b{fill-rule:evenodd;}</style></defs><g transform="translate(-34.074 -17.126)"><g transform="translate(34.738 18)"><path class="a" d="M92.352,56.371,81.923,60.932c-.713.312,3.277,2.857,4.166,2.474,1.425-.613,10.37-4.494,10.37-4.494" transform="translate(-81.789 -56.371)"/><path class="b" d="M96.433,79.413s-8.946,3.881-10.37,4.493c-.769.331-4.3-1.762-4.306-2.282V63.7c0,.521,3.538,2.613,4.306,2.282,1.424-.613,10.37-4.494,10.37-4.494Z" transform="translate(-81.747 -58.942)"/><path class="a" d="M96.414,79.388s-8.946,3.881-10.37,4.493c-.768.332-4.3-1.762-4.306-2.282V63.677c0,.521,3.538,2.614,4.306,2.283,1.425-.613,10.37-4.495,10.37-4.495Z" transform="translate(-81.738 -58.929)"/></g><path d="M18.412-17.732H14.877l-2.912-4.883a10.2,10.2,0,0,0-.769-1.151,4.631,4.631,0,0,0-.763-.782,2.575,2.575,0,0,0-.846-.445,3.52,3.52,0,0,0-1.03-.14H7.335v7.4H4.321V-35.969h6a8.683,8.683,0,0,1,2.365.305,5.5,5.5,0,0,1,1.882.922A4.3,4.3,0,0,1,15.824-33.2a4.848,4.848,0,0,1,.451,2.156,5.279,5.279,0,0,1-.286,1.774,4.613,4.613,0,0,1-.814,1.437A4.977,4.977,0,0,1,13.9-26.762a6.355,6.355,0,0,1-1.672.687v.051a4.694,4.694,0,0,1,.865.617q.369.337.7.693a8.313,8.313,0,0,1,.655.808q.324.451.719,1.049ZM7.335-33.514v5.926H9.853a3.733,3.733,0,0,0,1.291-.216,2.954,2.954,0,0,0,1.024-.623,2.82,2.82,0,0,0,.674-.992,3.4,3.4,0,0,0,.242-1.31,2.6,2.6,0,0,0-.827-2.047,3.459,3.459,0,0,0-2.378-.738ZM30.544-23.442H21.668a3.752,3.752,0,0,0,1.113,2.785,4.14,4.14,0,0,0,2.919.979,6.436,6.436,0,0,0,3.828-1.246v2.378a8.746,8.746,0,0,1-4.705,1.119A5.825,5.825,0,0,1,20.313-19.2a7.1,7.1,0,0,1-1.634-4.992,6.939,6.939,0,0,1,1.8-4.953,5.886,5.886,0,0,1,4.47-1.914,5.133,5.133,0,0,1,4.133,1.717,7.128,7.128,0,0,1,1.462,4.769ZM27.7-25.528A3.8,3.8,0,0,0,26.945-28a2.507,2.507,0,0,0-2.035-.884,2.863,2.863,0,0,0-2.156.928,4.241,4.241,0,0,0-1.087,2.429Zm14.981,7.2a7.276,7.276,0,0,1-3.7.9,6.267,6.267,0,0,1-4.68-1.812,6.42,6.42,0,0,1-1.78-4.7,7.066,7.066,0,0,1,1.914-5.17,6.843,6.843,0,0,1,5.119-1.952,7.472,7.472,0,0,1,3.141.623v2.747a4.757,4.757,0,0,0-2.9-1.017,4.03,4.03,0,0,0-3.065,1.265,4.627,4.627,0,0,0-1.2,3.313,4.412,4.412,0,0,0,1.125,3.192,4,4,0,0,0,3.02,1.17,4.72,4.72,0,0,0,3-1.132Zm8.7.9a6.455,6.455,0,0,1-4.814-1.825,6.592,6.592,0,0,1-1.8-4.839,6.86,6.86,0,0,1,1.876-5.125,6.9,6.9,0,0,1,5.055-1.844,6.247,6.247,0,0,1,4.756,1.793,6.927,6.927,0,0,1,1.7,4.972A6.825,6.825,0,0,1,56.316-19.3,6.6,6.6,0,0,1,51.375-17.427Zm.14-11.28A3.368,3.368,0,0,0,48.781-27.5a5.059,5.059,0,0,0-1,3.332,4.765,4.765,0,0,0,1.017,3.224,3.417,3.417,0,0,0,2.722,1.176,3.242,3.242,0,0,0,2.677-1.157,5.123,5.123,0,0,0,.935-3.294,5.2,5.2,0,0,0-.935-3.319A3.227,3.227,0,0,0,51.515-28.707Zm17.194.763a2.446,2.446,0,0,0-1.539-.42,2.634,2.634,0,0,0-2.187,1.183,5.289,5.289,0,0,0-.878,3.217v6.232h-2.95V-30.755h2.95v2.683h.051a4.537,4.537,0,0,1,1.329-2.143,3,3,0,0,1,2-.769,2.487,2.487,0,0,1,1.221.242Zm13.7,10.212h-2.95v-2.213H79.4a4.706,4.706,0,0,1-4.387,2.518,4.736,4.736,0,0,1-3.847-1.749,7.259,7.259,0,0,1-1.443-4.763,7.908,7.908,0,0,1,1.6-5.176,5.223,5.223,0,0,1,4.254-1.946A4.073,4.073,0,0,1,79.4-28.949h.051v-8.063h2.95Zm-2.912-5.952v-1.7a3.32,3.32,0,0,0-.9-2.353,3.012,3.012,0,0,0-2.3-.967,3.1,3.1,0,0,0-2.6,1.234,5.5,5.5,0,0,0-.947,3.421,4.926,4.926,0,0,0,.909,3.135A2.957,2.957,0,0,0,76.1-19.767a3.061,3.061,0,0,0,2.454-1.113A4.192,4.192,0,0,0,79.494-23.684Zm9.767,4.07H89.21v1.882h-2.95v-19.28h2.95v8.546h.051a4.835,4.835,0,0,1,4.426-2.594,4.66,4.66,0,0,1,3.86,1.749,7.311,7.311,0,0,1,1.393,4.686,8.162,8.162,0,0,1-1.564,5.233A5.167,5.167,0,0,1,93.1-17.427,4.2,4.2,0,0,1,89.26-19.614Zm-.076-5.176v1.615a3.446,3.446,0,0,0,.909,2.416,3,3,0,0,0,2.308.992,3.015,3.015,0,0,0,2.575-1.278,5.948,5.948,0,0,0,.935-3.567,4.687,4.687,0,0,0-.871-3.008,2.863,2.863,0,0,0-2.359-1.087,3.178,3.178,0,0,0-2.537,1.119A4.146,4.146,0,0,0,89.184-24.79Zm18.542,7.363a6.455,6.455,0,0,1-4.814-1.825,6.592,6.592,0,0,1-1.8-4.839,6.86,6.86,0,0,1,1.876-5.125,6.9,6.9,0,0,1,5.055-1.844,6.247,6.247,0,0,1,4.756,1.793,6.927,6.927,0,0,1,1.7,4.972,6.825,6.825,0,0,1-1.838,4.992A6.6,6.6,0,0,1,107.726-17.427Zm.14-11.28a3.368,3.368,0,0,0-2.734,1.208,5.059,5.059,0,0,0-1,3.332,4.765,4.765,0,0,0,1.017,3.224,3.417,3.417,0,0,0,2.722,1.176,3.242,3.242,0,0,0,2.677-1.157,5.123,5.123,0,0,0,.935-3.294,5.2,5.2,0,0,0-.935-3.319A3.227,3.227,0,0,0,107.866-28.707Zm15.413,11.28a6.455,6.455,0,0,1-4.814-1.825,6.592,6.592,0,0,1-1.8-4.839,6.86,6.86,0,0,1,1.876-5.125A6.9,6.9,0,0,1,123.6-31.06a6.247,6.247,0,0,1,4.756,1.793,6.927,6.927,0,0,1,1.7,4.972A6.825,6.825,0,0,1,128.22-19.3,6.6,6.6,0,0,1,123.279-17.427Zm.14-11.28a3.368,3.368,0,0,0-2.734,1.208,5.059,5.059,0,0,0-1,3.332,4.765,4.765,0,0,0,1.017,3.224,3.417,3.417,0,0,0,2.722,1.176,3.242,3.242,0,0,0,2.677-1.157,5.123,5.123,0,0,0,.935-3.294,5.2,5.2,0,0,0-.935-3.319A3.227,3.227,0,0,0,123.419-28.707Zm21.454,10.975h-3.739l-5.062-6.257h-.051v6.257h-2.963v-19.28h2.963V-24.79h.051l4.782-5.964H144.4l-5.379,6.282Z" transform="translate(53.045 57.998)"/></g></svg>